<svg width="512" height="512" viewBox="0 0 512 512" fill="none" xmlns="http://www.w3.org/2000/svg">
<path d="M256 329.6C296.648 329.6 329.6 296.648 329.6 256C329.6 215.352 296.648 182.4 256 182.4C215.352 182.4 182.4 215.352 182.4 256C182.4 296.648 215.352 329.6 256 329.6Z" fill="#01000A"/>
<path d="M357.2 26H154.8C120.652 26.0387 87.9137 39.6211 63.7674 63.7674C39.6211 87.9137 26.0387 120.652 26 154.8V357.2C26.0387 391.348 39.6211 424.086 63.7674 448.233C87.9137 472.379 120.652 485.961 154.8 486H357.2C391.348 485.961 424.086 472.379 448.233 448.233C472.379 424.086 485.961 391.348 486 357.2V154.8C485.961 120.652 472.379 87.9137 448.233 63.7674C424.086 39.6211 391.348 26.0387 357.2 26ZM256 366.4C234.165 366.4 212.82 359.925 194.665 347.794C176.51 335.663 162.36 318.421 154.004 298.248C145.648 278.075 143.462 255.878 147.721 234.462C151.981 213.047 162.496 193.375 177.935 177.935C193.375 162.496 213.047 151.981 234.462 147.721C255.878 143.462 278.075 145.648 298.248 154.004C318.421 162.36 335.663 176.51 347.794 194.665C359.925 212.82 366.4 234.165 366.4 256C366.367 285.27 354.725 313.331 334.028 334.028C313.331 354.725 285.27 366.367 256 366.4ZM375.6 164C370.141 164 364.805 162.381 360.266 159.349C355.727 156.316 352.19 152.005 350.101 146.962C348.012 141.919 347.465 136.369 348.53 131.015C349.595 125.662 352.224 120.744 356.084 116.884C359.944 113.024 364.862 110.395 370.216 109.33C375.569 108.265 381.119 108.812 386.162 110.901C391.205 112.99 395.516 116.527 398.549 121.066C401.581 125.605 403.2 130.941 403.2 136.4C403.2 143.72 400.292 150.74 395.116 155.916C389.94 161.092 382.92 164 375.6 164Z" fill="#01000A"/>
</svg>
