<svg width="512" height="512" viewBox="0 0 512 512" fill="none" xmlns="http://www.w3.org/2000/svg">
<path d="M452.031 26H59.9893C41.2159 26 26 40.7508 26 58.9568V453.033C26 471.239 41.2211 486.005 59.9893 486.005H452.031C470.804 486.005 486 471.234 486 453.033V58.9568C486 40.7559 470.804 26 452.031 26ZM165.458 411.055H95.9566V203.368H165.458V411.055ZM130.712 174.996H130.247C106.94 174.996 91.8318 159.054 91.8318 139.1C91.8318 118.742 107.385 103.235 131.152 103.235C154.924 103.235 169.547 118.737 170.007 139.1C170.007 159.059 154.929 174.996 130.712 174.996ZM415.997 411.055H346.516V299.938C346.516 272.011 336.447 252.961 311.321 252.961C292.098 252.961 280.689 265.816 275.681 278.221C273.82 282.657 273.365 288.852 273.365 295.047V411.05H203.894C203.894 411.05 204.804 222.841 203.894 203.363H273.37V232.808C282.596 218.66 299.074 198.476 335.977 198.476C381.707 198.476 415.997 228.142 415.997 291.965V411.055ZM272.921 233.467C273.043 233.273 273.207 233.033 273.37 232.808V233.467H272.921Z" fill="#01000A"/>
</svg>
