<svg width="512" height="512" viewBox="0 0 512 512" fill="none" xmlns="http://www.w3.org/2000/svg">
<path fill-rule="evenodd" clip-rule="evenodd" d="M392.599 486C443.97 486 486 443.97 486 392.599V119.401C486 68.031 443.97 26 392.599 26H119.401C68.03 26 26 68.031 26 119.401V392.599C26 443.97 68.03 486 119.401 486H392.599ZM401.075 95.154L290.425 233.064L437.885 416.854H332.235L237.595 298.904L142.965 416.854H110.915L221.575 278.934L74.125 95.154H179.775L274.405 213.094L369.025 95.154H401.075ZM167.775 120.153H126.225L344.225 391.853H385.775L167.775 120.153Z" fill="#01000A"/>
</svg>
